<svg width="118" height="35" viewBox="0 0 118 35" fill="none" xmlns="http://www.w3.org/2000/svg">
<rect x="0" y="0" width="118" height="35" rx="3.4" ry="3.4" fill="#fd0" />
<g transform="translate(9.3, 7.8) scale(0.777778)">
<path fill-rule="evenodd" clip-rule="evenodd" d="M31.9432 14.0424C31.7743 14.3643 31.5419 14.6446 31.2463 14.8824C30.9507 15.1204 30.6057 15.3142 30.2115 15.4634C29.8173 15.613 29.4206 15.7134 29.0218 15.7645C28.6227 15.8159 28.2355 15.8114 27.8602 15.7505C27.4848 15.6899 27.1654 15.5663 26.9028 15.3794L27.1986 12.3132C27.4706 12.2199 27.813 12.1242 28.2262 12.0261C28.6392 11.9282 29.0639 11.8581 29.5005 11.8162C29.937 11.7741 30.3498 11.779 30.7395 11.8302C31.1287 11.8815 31.4363 12.0052 31.6616 12.2013C31.7835 12.3132 31.887 12.4345 31.9715 12.5652C32.0558 12.696 32.1074 12.8313 32.1263 12.9713C32.1731 13.3633 32.1122 13.7204 31.9432 14.0424ZM27.6489 7.51077C27.8461 7.38945 28.0831 7.28199 28.36 7.18855C28.6368 7.09547 28.9208 7.02993 29.2118 6.99263C29.5026 6.9555 29.7866 6.95053 30.0636 6.97859C30.3403 7.00666 30.5847 7.08357 30.7958 7.20951C31.0069 7.33563 31.1641 7.5177 31.2673 7.75555C31.3706 7.99375 31.3988 8.29483 31.3518 8.65879C31.3143 8.94815 31.1991 9.19328 31.0069 9.39383C30.8145 9.59473 30.5797 9.76259 30.303 9.89794C30.0261 10.0335 29.7328 10.1408 29.4231 10.2198C29.1132 10.2994 28.8151 10.3578 28.529 10.3949C28.2426 10.4324 27.994 10.4559 27.7829 10.4649C27.5716 10.4743 27.433 10.479 27.3674 10.479L27.6489 7.51077ZM33.4638 12.0611C33.3136 11.7346 33.1117 11.4476 32.8585 11.2C32.605 10.9527 32.3044 10.7731 31.9573 10.661C32.1074 10.5397 32.2553 10.3484 32.4009 10.0869C32.5462 9.82582 32.6706 9.5409 32.7738 9.23289C32.877 8.92471 32.9476 8.61457 32.9851 8.30176C33.0224 7.98913 33.0083 7.72073 32.943 7.49656C32.7831 6.93667 32.5321 6.49793 32.1895 6.1805C31.8468 5.86326 31.4481 5.64388 30.9928 5.52239C30.5375 5.40142 30.0354 5.37549 29.4863 5.44547C28.9373 5.51546 28.3762 5.65312 27.8039 5.85846C27.8039 5.81192 27.8086 5.7629 27.8181 5.71156C27.8272 5.6604 27.832 5.60658 27.832 5.55045C27.832 5.41048 27.7616 5.28934 27.6209 5.18649C27.4801 5.08382 27.3181 5.02325 27.1352 5.00442C26.9521 4.98594 26.7737 5.02538 26.6001 5.12343C26.4263 5.22148 26.3066 5.40142 26.241 5.66236C26.1658 6.50255 26.0908 7.37542 26.0158 8.28062C25.9406 9.18618 25.8609 10.101 25.7764 11.0252C25.692 11.9492 25.6075 12.8663 25.523 13.7763C25.4385 14.6865 25.354 15.5615 25.2695 16.4015C25.2978 16.6536 25.3681 16.8497 25.4808 16.9896C25.5934 17.1298 25.7248 17.2138 25.875 17.2417C26.0251 17.2698 26.1824 17.2438 26.3466 17.1646C26.5107 17.0856 26.654 16.9475 26.7762 16.7516C27.1514 16.9569 27.5739 17.09 28.0433 17.1507C28.5125 17.2113 28.9887 17.2113 29.4724 17.1507C29.9556 17.09 30.4319 16.9758 30.9014 16.8076C31.3706 16.6397 31.7977 16.4296 32.1826 16.1777C32.5673 15.9256 32.8912 15.6384 33.1541 15.3165C33.4168 14.9943 33.5904 14.6467 33.6749 14.2735C33.7594 13.8907 33.7828 13.5081 33.7453 13.1253C33.7078 12.7427 33.6138 12.3881 33.4638 12.0611Z" fill="#222222"></path><path fill-rule="evenodd" clip-rule="evenodd" d="M47.1983 19.4539C47.1467 19.7619 47.0738 20.0862 46.98 20.4271C46.8861 20.7676 46.7759 21.0781 46.6492 21.3582C46.5226 21.6382 46.3817 21.8643 46.227 22.0371C46.0719 22.2098 45.9053 22.2823 45.727 22.2544C45.5863 22.2354 45.497 22.1467 45.4596 21.9883C45.422 21.8293 45.422 21.6334 45.4596 21.4001C45.497 21.1667 45.5697 20.903 45.6777 20.609C45.7856 20.315 45.9171 20.0232 46.0719 19.734C46.227 19.4444 46.4029 19.167 46.5999 18.9009C46.7971 18.635 47.0034 18.4131 47.2194 18.2358C47.2664 18.2918 47.2874 18.4318 47.2828 18.6559C47.2778 18.8799 47.2497 19.146 47.1983 19.4539ZM51.9713 13.3773C51.8445 13.2373 51.6897 13.1581 51.5066 13.1393C51.3237 13.1206 51.1381 13.2233 50.9505 13.4473C50.8284 13.6713 50.6735 13.886 50.4858 14.0914C50.298 14.2969 50.1033 14.4834 49.9015 14.6515C49.6997 14.8193 49.5073 14.9643 49.3242 15.0854C49.1413 15.2069 48.9981 15.2955 48.8948 15.3515C48.8573 15.0529 48.8361 14.7309 48.8316 14.3854C48.8266 14.0401 48.8337 13.6901 48.8527 13.3354C48.8807 12.8313 48.9393 12.3227 49.0286 11.8092C49.1177 11.2959 49.2469 10.7917 49.4158 10.2969C49.4158 10.0357 49.3546 9.8233 49.2328 9.65988C49.1106 9.49664 48.9629 9.39379 48.7893 9.35187C48.6155 9.30995 48.4374 9.33322 48.2543 9.42186C48.0712 9.51067 47.914 9.67178 47.7826 9.90483C47.67 10.213 47.5409 10.5583 47.3955 10.9409C47.2497 11.3237 47.0856 11.7135 46.9027 12.1101C46.7196 12.5071 46.5155 12.892 46.2902 13.2652C46.0648 13.6388 45.8185 13.9702 45.5509 14.2594C45.2835 14.5488 44.9924 14.7753 44.6782 14.9385C44.3635 15.1019 44.0236 15.1742 43.6574 15.1556C43.4882 15.1089 43.3662 14.9829 43.2912 14.7774C43.216 14.5722 43.1715 14.3154 43.1576 14.0074C43.1435 13.6994 43.1576 13.361 43.1998 12.9922C43.2421 12.6236 43.2984 12.2572 43.3687 11.8932C43.4391 11.5291 43.5166 11.1838 43.6009 10.8571C43.6854 10.5304 43.7651 10.2549 43.8403 10.031C43.953 9.76042 43.953 9.53376 43.8403 9.35187C43.7278 9.1698 43.5729 9.04866 43.3759 8.98773C43.1787 8.92716 42.972 8.92965 42.7563 8.99484C42.5403 9.0602 42.3854 9.20479 42.2917 9.42879C42.132 9.81176 41.9864 10.2409 41.8551 10.717C41.7237 11.193 41.6181 11.6856 41.5384 12.1941C41.4584 12.703 41.4138 13.2071 41.4045 13.7065C41.4039 13.739 41.4056 13.7699 41.4054 13.8022C41.2007 14.3449 41.0056 14.755 40.8204 15.0295C40.5811 15.3844 40.311 15.5384 40.0107 15.4915C39.8791 15.4355 39.7926 15.305 39.7505 15.0994C39.7078 14.8943 39.6939 14.6422 39.7078 14.3433C39.7223 14.0449 39.7574 13.7065 39.8135 13.3283C39.8702 12.9503 39.9402 12.5583 40.0247 12.1522C40.1093 11.746 40.1985 11.338 40.2922 10.9271C40.386 10.5164 40.4705 10.129 40.5459 9.76486C40.5364 9.4382 40.4401 9.18863 40.257 9.0158C40.0741 8.84332 39.8182 8.77564 39.4899 8.81277C39.2646 8.9062 39.0978 9.0277 38.9899 9.17691C38.8819 9.32612 38.7951 9.5176 38.7295 9.75083C38.6918 9.87233 38.6355 10.115 38.5605 10.4791C38.4853 10.8429 38.3892 11.2609 38.2719 11.7321C38.1545 12.2037 38.0161 12.6959 37.8566 13.2093C37.6969 13.7226 37.5186 14.1873 37.3216 14.6024C37.1244 15.0177 36.9085 15.3515 36.674 15.6036C36.4393 15.8554 36.1858 15.9583 35.9136 15.9116C35.7634 15.8835 35.6673 15.7295 35.6251 15.4495C35.5828 15.1694 35.5758 14.8243 35.6039 14.4134C35.6321 14.0028 35.6883 13.5523 35.7728 13.0624C35.8573 12.5723 35.944 12.108 36.0333 11.6691C36.1224 11.2305 36.2046 10.8429 36.2798 10.507C36.3548 10.1709 36.4064 9.94693 36.4346 9.83502C36.4346 9.56432 36.3733 9.34743 36.2515 9.18383C36.1294 9.02077 35.9816 8.91792 35.808 8.87582C35.6342 8.8339 35.456 8.85717 35.2731 8.94581C35.09 9.03463 34.9328 9.19574 34.8013 9.42879C34.7544 9.68084 34.6933 9.97269 34.6182 10.304C34.5431 10.6352 34.4705 10.9759 34.4002 11.326C34.3298 11.6762 34.2639 12.0192 34.203 12.3552C34.1419 12.6913 34.0974 12.9853 34.0692 13.2373C34.0504 13.4333 34.0292 13.6738 34.0059 13.9583C33.9824 14.2433 33.9706 14.5442 33.9706 14.8614C33.9706 15.179 33.994 15.494 34.0411 15.8066C34.0879 16.1194 34.1724 16.4064 34.2944 16.6676C34.4164 16.929 34.5877 17.1436 34.8085 17.3116C35.0289 17.4797 35.3083 17.5729 35.6462 17.5918C35.9932 17.6102 36.296 17.5848 36.5543 17.5147C36.8124 17.4447 37.0469 17.3349 37.2582 17.1855C37.4693 17.0365 37.6617 16.859 37.8355 16.6535C38.009 16.4484 38.1804 16.2244 38.3494 15.9815C38.5089 16.3365 38.7154 16.6116 38.9688 16.8077C39.2223 17.0036 39.4899 17.1205 39.7714 17.1576C40.0529 17.1948 40.3394 17.1555 40.6303 17.0386C40.9211 16.9221 41.1839 16.7237 41.4188 16.4436C41.5733 16.2718 41.719 16.0766 41.8558 15.8608C41.9139 15.9618 41.9757 16.0594 42.0452 16.1494C42.2752 16.4484 42.5875 16.6535 42.9817 16.7656C43.4039 16.8777 43.8167 16.8965 44.2206 16.8217C44.6241 16.7471 45.009 16.6116 45.375 16.4157C45.7411 16.2196 46.0812 15.984 46.3958 15.7085C46.7101 15.4332 46.9847 15.1463 47.2194 14.8474C47.2099 15.0621 47.2053 15.2653 47.2053 15.4565C47.2053 15.648 47.2006 15.8554 47.1913 16.0796C46.7218 16.4064 46.2784 16.7985 45.8608 17.2557C45.443 17.7129 45.0769 18.2007 44.7625 18.7188C44.4481 19.2368 44.2016 19.7619 44.0236 20.2939C43.8451 20.8262 43.7581 21.3231 43.7629 21.7852C43.7676 22.2473 43.8778 22.6508 44.0938 22.9961C44.3095 23.3416 44.6616 23.5889 45.1497 23.7383C45.6567 23.8971 46.1023 23.9015 46.4874 23.7523C46.8722 23.6029 47.2076 23.3555 47.4939 23.0102C47.7802 22.6649 48.0148 22.2473 48.198 21.7572C48.3809 21.2671 48.5265 20.7561 48.6344 20.2241C48.7423 19.6921 48.8103 19.1689 48.8386 18.6559C48.8668 18.1424 48.8668 17.6848 48.8386 17.2836C49.6457 16.9477 50.3073 16.523 50.8237 16.0094C51.3399 15.4964 51.767 14.9548 52.1049 14.3854C52.2082 14.2454 52.2434 14.0774 52.2107 13.8814C52.1776 13.6853 52.098 13.5173 51.9713 13.3773Z" fill="#222222"></path><path fill-rule="evenodd" clip-rule="evenodd" d="M69.7323 12.4812C69.7603 12.2666 69.8026 12.0401 69.8589 11.8021C69.9152 11.5641 69.9857 11.333 70.0702 11.109C70.1545 10.885 70.2531 10.6914 70.3658 10.528C70.4785 10.3647 70.5982 10.248 70.7248 10.1779C70.8517 10.1081 70.9804 10.115 71.1121 10.1988C71.2528 10.283 71.3395 10.4603 71.3725 10.7308C71.4052 11.0019 71.3725 11.2911 71.2739 11.5991C71.1753 11.9073 70.9994 12.1965 70.7459 12.4672C70.4926 12.738 70.1499 12.9151 69.7181 12.9992C69.6992 12.8688 69.704 12.6959 69.7323 12.4812ZM74.6107 13.0551C74.4558 13.0088 74.3081 13.004 74.1672 13.0413C74.0264 13.0786 73.9371 13.1766 73.8998 13.3354C73.8244 13.634 73.7047 13.9397 73.5406 14.2523C73.3762 14.5651 73.1746 14.8614 72.9354 15.1416C72.6961 15.4215 72.426 15.6689 72.1257 15.8835C71.8253 16.0983 71.5109 16.2523 71.1825 16.3455C70.8536 16.4484 70.5816 16.4599 70.3658 16.3805C70.1499 16.3015 69.9786 16.1659 69.8519 15.9746C69.7253 15.7833 69.6337 15.5522 69.5774 15.2815C69.521 15.0108 69.4881 14.7309 69.4788 14.4413C70.0138 14.4788 70.4901 14.3833 70.9079 14.1543C71.3253 13.9259 71.6797 13.6223 71.9709 13.2443C72.2617 12.8663 72.4823 12.4416 72.6325 11.9702C72.7825 11.4989 72.8672 11.0298 72.8859 10.563C72.8952 10.1242 72.8297 9.75333 72.6889 9.44994C72.5482 9.14673 72.3579 8.91066 72.1186 8.7428C71.8794 8.57476 71.6047 8.47671 71.295 8.44882C70.9854 8.42075 70.6707 8.46285 70.3517 8.57476C69.9666 8.70549 69.6406 8.91776 69.3732 9.21192C69.1057 9.50589 68.8826 9.84676 68.7045 10.234C68.526 10.6214 68.3853 11.039 68.2821 11.487C68.1786 11.9352 68.1036 12.3762 68.0568 12.8103C68.0145 13.1999 67.992 13.5724 67.9839 13.9319C67.9639 13.9775 67.9445 14.0214 67.923 14.0703C67.7775 14.4019 67.6083 14.7263 67.4161 15.0435C67.2237 15.3609 67.0101 15.627 66.7756 15.8416C66.5409 16.0563 66.2969 16.131 66.0434 16.0656C65.8932 16.0285 65.8112 15.8554 65.7971 15.5476C65.783 15.2394 65.7993 14.8568 65.8462 14.3994C65.8932 13.9422 65.9472 13.4471 66.0083 12.9151C66.0692 12.3831 66.0997 11.8746 66.0997 11.3891C66.0997 10.969 66.0199 10.5655 65.8604 10.1779C65.7007 9.79081 65.4824 9.46859 65.2057 9.21192C64.9287 8.95506 64.6074 8.78472 64.2414 8.70087C63.8752 8.61668 63.481 8.67281 63.0587 8.86873C62.6361 9.06484 62.3007 9.34016 62.052 9.69489C61.8031 10.0498 61.5755 10.423 61.3692 10.815C61.2938 10.5163 61.1838 10.2388 61.0382 9.98194C60.8926 9.72527 60.7146 9.50127 60.5032 9.30979C60.2919 9.11866 60.0547 8.96927 59.7923 8.86181C59.5294 8.7547 59.2524 8.70087 58.9614 8.70087C58.6799 8.70087 58.4195 8.7547 58.1801 8.86181C57.9408 8.96927 57.7225 9.10676 57.5253 9.2748C57.3283 9.44301 57.1501 9.63183 56.9904 9.84197C56.8309 10.0519 56.6898 10.2598 56.5681 10.4649C56.549 10.2223 56.5279 10.01 56.5047 9.82776C56.4811 9.64586 56.4388 9.49186 56.3779 9.36592C56.3168 9.2398 56.2302 9.14424 56.1175 9.07887C56.0048 9.01368 55.8453 8.98082 55.6389 8.98082C55.5355 8.98082 55.4321 9.00178 55.329 9.0437C55.2256 9.0858 55.134 9.14424 55.0545 9.21884C54.9747 9.2938 54.9138 9.38457 54.8716 9.49186C54.8291 9.59915 54.8177 9.72296 54.8362 9.86293C54.8455 9.96578 54.8716 10.0892 54.9138 10.234C54.9559 10.3788 54.9957 10.5679 55.0334 10.801C55.0708 11.0344 55.1013 11.3168 55.1249 11.6481C55.1483 11.9796 55.1553 12.3856 55.146 12.8663C55.1365 13.3471 55.1013 13.9093 55.0404 14.5534C54.9791 15.1975 54.883 15.9443 54.7518 16.7935C54.733 16.9896 54.808 17.1484 54.9772 17.2697C55.146 17.3909 55.3383 17.4609 55.5543 17.4797C55.7701 17.4983 55.9744 17.4609 56.1668 17.3678C56.3591 17.2742 56.4695 17.1109 56.4976 16.8777C56.5258 16.439 56.5797 15.9723 56.6596 15.4775C56.7392 14.9829 56.8378 14.4928 56.9552 14.0074C57.0725 13.5221 57.2061 13.0601 57.3565 12.6212C57.5066 12.1824 57.6732 11.7952 57.8563 11.4591C58.0394 11.123 58.2294 10.8548 58.4265 10.6541C58.6237 10.4534 58.83 10.353 59.0461 10.353C59.3088 10.353 59.5128 10.4718 59.6586 10.7099C59.8038 10.9481 59.907 11.2539 59.9683 11.627C60.0292 12.0005 60.0572 12.4091 60.0528 12.8523C60.0478 13.2956 60.0292 13.7226 59.9963 14.1333C59.9635 14.5442 59.926 14.9105 59.8836 15.2325C59.8415 15.5545 59.8109 15.7764 59.7923 15.8975C59.7923 16.1123 59.8743 16.2825 60.0385 16.4086C60.2026 16.5345 60.3857 16.6093 60.5877 16.6326C60.7896 16.656 60.9794 16.6185 61.1579 16.5205C61.3361 16.4224 61.4394 16.2571 61.4676 16.0235C61.5614 15.3515 61.6905 14.6772 61.8547 14.0005C62.0188 13.3237 62.2067 12.7171 62.418 12.1803C62.6292 11.6435 62.8637 11.2047 63.122 10.8641C63.3801 10.5235 63.6546 10.353 63.9458 10.353C64.0956 10.353 64.2108 10.4559 64.2905 10.661C64.3701 10.8664 64.4102 11.1463 64.4102 11.501C64.4102 11.7625 64.3891 12.0309 64.3469 12.3062C64.3046 12.5816 64.2555 12.8663 64.199 13.1603C64.1428 13.4544 64.0935 13.7553 64.0511 14.0633C64.009 14.3715 63.9879 14.6934 63.9879 15.0295C63.9879 15.2629 64.0113 15.5336 64.0583 15.8416C64.1051 16.1494 64.1942 16.4414 64.3257 16.7166C64.4571 16.9921 64.6377 17.2253 64.868 17.4166C65.0978 17.6079 65.3909 17.7037 65.7476 17.7037C66.2828 17.7037 66.7567 17.5893 67.1698 17.3607C67.5828 17.1321 67.9371 16.8335 68.2328 16.4647C68.2481 16.4454 68.2621 16.4248 68.2771 16.4056C68.2997 16.4601 68.3197 16.5178 68.3453 16.5697C68.5471 16.9804 68.8217 17.2976 69.1691 17.5218C69.5161 17.7458 69.9244 17.8694 70.394 17.8929C70.8633 17.916 71.3746 17.8296 71.9287 17.6337C72.3415 17.4843 72.7005 17.2976 73.0056 17.0736C73.3105 16.8496 73.585 16.5766 73.8292 16.2546C74.0734 15.9325 74.2961 15.5615 74.4981 15.1416C74.7 14.7213 74.904 14.2408 75.1104 13.6992C75.148 13.5502 75.1128 13.4171 75.0051 13.3002C74.897 13.1837 74.7657 13.102 74.6107 13.0551Z" fill="#222222"></path><path fill-rule="evenodd" clip-rule="evenodd" d="M82.2629 11.494C82.2157 11.7695 82.1525 12.0731 82.0728 12.4042C81.9928 12.7356 81.8921 13.0786 81.7701 13.4334C81.6481 13.7881 81.4979 14.1078 81.3196 14.3924C81.1412 14.6773 80.937 14.9034 80.7071 15.0715C80.4771 15.2395 80.212 15.3095 79.9116 15.2814C79.7613 15.2629 79.6463 15.1603 79.5667 14.9734C79.4868 14.7869 79.4447 14.5487 79.4398 14.2593C79.4352 13.9702 79.4609 13.6527 79.5174 13.3072C79.5736 12.9621 79.6604 12.6235 79.778 12.2921C79.8951 11.961 80.0384 11.6551 80.2072 11.375C80.3761 11.095 80.5708 10.878 80.7916 10.724C81.012 10.57 81.2539 10.4979 81.5166 10.5069C81.7794 10.5163 82.0609 10.6469 82.3615 10.8989C82.3424 11.0204 82.3099 11.2189 82.2629 11.494ZM87.2679 12.5651C87.1224 12.4905 86.9723 12.4743 86.8175 12.5163C86.6628 12.5582 86.5522 12.7006 86.4867 12.9433C86.4492 13.2048 86.3647 13.5126 86.2334 13.8673C86.1017 14.222 85.9397 14.5583 85.7475 14.8754C85.555 15.1928 85.3344 15.4566 85.0858 15.6665C84.837 15.8767 84.5719 15.9724 84.2904 15.9534C84.0555 15.9349 83.8912 15.8159 83.7976 15.5965C83.7034 15.3772 83.6543 15.102 83.6497 14.7704C83.6449 14.4393 83.6779 14.0659 83.7481 13.6504C83.8187 13.2351 83.9031 12.8221 84.0016 12.4111C84.1002 12.0006 84.2011 11.6061 84.3045 11.2281C84.4076 10.8501 84.4919 10.5304 84.558 10.2691C84.633 10.0357 84.6094 9.83742 84.4874 9.67383C84.3654 9.51076 84.2129 9.39388 84.03 9.3239C83.8467 9.25391 83.6613 9.23526 83.4736 9.26794C83.2858 9.30063 83.164 9.40099 83.1076 9.56885C82.5537 9.0928 82.021 8.83612 81.5097 8.79882C80.9979 8.76152 80.5262 8.8736 80.0946 9.1349C79.6627 9.39619 79.2803 9.77419 78.9472 10.2691C78.6139 10.7639 78.344 11.3029 78.1375 11.8862C77.931 12.4695 77.8019 13.0648 77.7505 13.6714C77.6987 14.2782 77.7385 14.8313 77.8701 15.3306C78.0016 15.8299 78.2336 16.2385 78.5671 16.5556C78.9001 16.873 79.353 17.0318 79.9257 17.0318C80.1791 17.0318 80.4231 16.9804 80.6578 16.8778C80.8924 16.7749 81.1083 16.6536 81.3055 16.5136C81.5025 16.3737 81.6761 16.2266 81.8265 16.0726C81.9764 15.9186 82.0939 15.7903 82.1784 15.6875C82.244 16.0236 82.352 16.3085 82.5022 16.5417C82.6523 16.7749 82.8237 16.9666 83.0161 17.1156C83.2083 17.2648 83.4103 17.3746 83.6215 17.4448C83.8328 17.5148 84.0369 17.5498 84.2339 17.5498C84.6751 17.5498 85.0879 17.4004 85.473 17.1016C85.8578 16.8032 86.2027 16.4365 86.5079 16.0026C86.8128 15.5685 87.064 15.1113 87.261 14.6304C87.4582 14.1497 87.5895 13.7227 87.6552 13.3492C87.7209 13.2092 87.7091 13.0623 87.62 12.9083C87.5307 12.7543 87.4135 12.6401 87.2679 12.5651Z" fill="#222222"></path><path fill-rule="evenodd" clip-rule="evenodd" d="M112.611 20.294C112.531 20.6112 112.407 20.8798 112.238 21.099C112.069 21.3183 111.858 21.4327 111.604 21.4422C111.445 21.4514 111.323 21.3674 111.238 21.1901C111.154 21.0126 111.095 20.784 111.062 20.5041C111.029 20.224 111.015 19.9112 111.02 19.5659C111.025 19.2205 111.039 18.8798 111.062 18.5438C111.085 18.2079 111.114 17.8949 111.147 17.6057C111.179 17.3162 111.205 17.0925 111.224 16.9337C111.543 16.971 111.808 17.1085 112.019 17.3467C112.231 17.5847 112.393 17.867 112.505 18.1938C112.618 18.5205 112.684 18.8729 112.702 19.2509C112.721 19.6289 112.691 19.9765 112.611 20.294ZM107.514 20.294C107.434 20.6112 107.31 20.8798 107.141 21.099C106.972 21.3183 106.761 21.4327 106.507 21.4422C106.348 21.4514 106.226 21.3674 106.141 21.1901C106.057 21.0126 105.998 20.784 105.966 20.5041C105.932 20.224 105.918 19.9112 105.923 19.5659C105.928 19.2205 105.942 18.8798 105.966 18.5438C105.989 18.2079 106.017 17.8949 106.05 17.6057C106.083 17.3162 106.108 17.0925 106.127 16.9337C106.446 16.971 106.712 17.1085 106.923 17.3467C107.134 17.5847 107.296 17.867 107.409 18.1938C107.521 18.5205 107.587 18.8729 107.606 19.2509C107.624 19.6289 107.594 19.9765 107.514 20.294ZM102.284 12.3413C102.274 12.5651 102.253 12.7635 102.22 12.9362C102.187 13.1092 102.143 13.2186 102.087 13.2653C101.983 13.2092 101.856 13.0648 101.706 12.8312C101.556 12.598 101.439 12.334 101.354 12.04C101.27 11.7461 101.244 11.4569 101.277 11.172C101.31 10.8874 101.458 10.6659 101.721 10.5069C101.824 10.451 101.913 10.4719 101.988 10.57C102.063 10.668 102.124 10.8103 102.171 10.997C102.218 11.1839 102.251 11.3984 102.27 11.6411C102.288 11.8839 102.293 12.1171 102.284 12.3413ZM101.038 15.1345C100.892 15.2883 100.73 15.4214 100.552 15.5335C100.374 15.6456 100.19 15.7296 100.003 15.7855C99.815 15.8417 99.646 15.8555 99.496 15.8275C99.0736 15.7436 98.7497 15.5614 98.5247 15.2814C98.2993 15.0015 98.156 14.6725 98.0951 14.2945C98.034 13.9163 98.041 13.5126 98.1164 13.0833C98.1912 12.6539 98.3178 12.255 98.4963 11.8862C98.6747 11.5174 98.8907 11.2 99.1439 10.9341C99.3974 10.668 99.6741 10.5025 99.9747 10.4369C99.862 10.913 99.8245 11.4055 99.862 11.9141C99.8995 12.4228 100.022 12.9012 100.228 13.3492C100.359 13.6202 100.517 13.8673 100.7 14.0913C100.883 14.3155 101.106 14.5068 101.369 14.6654C101.293 14.8242 101.183 14.9805 101.038 15.1345ZM116.617 12.4813C116.645 12.2667 116.687 12.04 116.743 11.802C116.799 11.5642 116.87 11.3331 116.954 11.1091C117.039 10.8849 117.137 10.6913 117.25 10.528C117.363 10.3648 117.482 10.2479 117.609 10.1779C117.736 10.108 117.865 10.1149 117.996 10.1989C118.137 10.2831 118.224 10.4604 118.257 10.7309C118.289 11.0018 118.257 11.291 118.158 11.5992C118.06 11.9072 117.884 12.1965 117.63 12.4671C117.377 12.7381 117.034 12.9152 116.602 12.9992C116.583 12.8687 116.588 12.696 116.617 12.4813ZM122.291 12.4813C122.319 12.2667 122.361 12.04 122.417 11.802C122.474 11.5642 122.544 11.3331 122.628 11.1091C122.713 10.8849 122.811 10.6913 122.924 10.528C123.037 10.3648 123.156 10.2479 123.283 10.1779C123.41 10.108 123.539 10.1149 123.67 10.1989C123.811 10.2831 123.898 10.4604 123.931 10.7309C123.964 11.0018 123.931 11.291 123.832 11.5992C123.734 11.9072 123.558 12.1965 123.304 12.4671C123.051 12.7381 122.708 12.9152 122.276 12.9992C122.258 12.8687 122.262 12.696 122.291 12.4813ZM127.563 13.3003C127.455 13.1838 127.324 13.1021 127.169 13.0552C127.014 13.0086 126.867 13.004 126.725 13.0413C126.585 13.0786 126.495 13.1767 126.458 13.3353C126.383 13.6341 126.263 13.9398 126.099 14.2522C125.935 14.5652 125.733 14.8615 125.494 15.1414C125.254 15.4214 124.984 15.669 124.684 15.8836C124.384 16.0983 124.069 16.2523 123.741 16.3454C123.412 16.4484 123.14 16.46 122.924 16.3806C122.708 16.3014 122.537 16.166 122.41 15.9747C122.284 15.7832 122.192 15.5523 122.136 15.2814C122.079 15.0109 122.046 14.7309 122.037 14.4414C122.572 14.4789 123.049 14.3833 123.466 14.1544C123.884 13.9258 124.238 13.6222 124.529 13.2442C124.82 12.8664 125.041 12.4417 125.191 11.9702C125.341 11.4988 125.425 11.0299 125.444 10.563C125.453 10.1243 125.388 9.75323 125.247 9.44983C125.106 9.14662 124.916 8.91073 124.677 8.74287C124.438 8.57465 124.163 8.47678 123.853 8.44871C123.544 8.42065 123.229 8.46292 122.91 8.57465C122.525 8.70557 122.199 8.91783 121.932 9.21181C121.664 9.50597 121.441 9.84684 121.263 10.2339C121.084 10.6215 120.944 11.0389 120.84 11.4871C120.737 11.9351 120.662 12.3763 120.615 12.8102C120.57 13.2314 120.545 13.6344 120.539 14.0202C120.504 14.0972 120.466 14.1744 120.425 14.2522C120.261 14.5652 120.059 14.8615 119.82 15.1414C119.58 15.4214 119.31 15.669 119.01 15.8836C118.71 16.0983 118.395 16.2523 118.067 16.3454C117.738 16.4484 117.466 16.46 117.25 16.3806C117.034 16.3014 116.863 16.166 116.736 15.9747C116.61 15.7832 116.518 15.5523 116.462 15.2814C116.405 15.0109 116.372 14.7309 116.363 14.4414C116.898 14.4789 117.374 14.3833 117.792 14.1544C118.21 13.9258 118.564 13.6222 118.855 13.2442C119.146 12.8664 119.367 12.4417 119.517 11.9702C119.667 11.4988 119.751 11.0299 119.77 10.563C119.779 10.1243 119.714 9.75323 119.573 9.44983C119.432 9.14662 119.242 8.91073 119.003 8.74287C118.764 8.57465 118.489 8.47678 118.179 8.44871C117.87 8.42065 117.555 8.46292 117.236 8.57465C116.851 8.70557 116.525 8.91783 116.258 9.21181C115.99 9.50597 115.767 9.84684 115.589 10.2339C115.41 10.6215 115.27 11.0389 115.166 11.4871C115.063 11.9351 114.988 12.3763 114.941 12.8102C114.914 13.055 114.897 13.2923 114.884 13.5254C114.793 13.6021 114.704 13.6794 114.61 13.7552C114.286 14.0167 113.946 14.2522 113.589 14.4624C113.232 14.6725 112.862 14.8452 112.477 14.9805C112.092 15.1159 111.698 15.1976 111.294 15.2255L112.168 5.9285C112.224 5.7324 112.196 5.55992 112.083 5.41053C111.97 5.26115 111.825 5.15848 111.646 5.10252C111.468 5.04639 111.278 5.05119 111.076 5.11638C110.874 5.18192 110.708 5.33131 110.576 5.56436C110.511 5.91926 110.443 6.40455 110.372 7.02057C110.302 7.63659 110.231 8.30874 110.161 9.03685C110.091 9.76495 110.02 10.5163 109.95 11.291C109.88 12.066 109.818 12.7893 109.767 13.4612C109.765 13.4911 109.763 13.5181 109.76 13.5476C109.678 13.6169 109.598 13.6867 109.513 13.7552C109.19 14.0167 108.849 14.2522 108.493 14.4624C108.136 14.6725 107.765 14.8452 107.381 14.9805C106.995 15.1159 106.601 15.1976 106.198 15.2255L107.071 5.9285C107.127 5.7324 107.099 5.55992 106.986 5.41053C106.874 5.26115 106.728 5.15848 106.55 5.10252C106.371 5.04639 106.181 5.05119 105.979 5.11638C105.778 5.18192 105.611 5.33131 105.48 5.56436C105.414 5.91926 105.346 6.40455 105.276 7.02057C105.205 7.63659 105.135 8.30874 105.064 9.03685C104.994 9.76495 104.924 10.5163 104.853 11.291C104.783 12.066 104.722 12.7893 104.67 13.4612C104.669 13.4747 104.668 13.487 104.667 13.5005C104.52 13.5685 104.359 13.6282 104.184 13.6783C104.006 13.7298 103.804 13.7602 103.579 13.7694C103.617 13.6012 103.647 13.4145 103.67 13.2092C103.694 13.004 103.713 12.7893 103.727 12.5651C103.741 12.3413 103.746 12.1171 103.741 11.8931C103.736 11.669 103.724 11.4638 103.706 11.2769C103.659 10.8758 103.572 10.4954 103.445 10.1358C103.319 9.77667 103.147 9.47577 102.932 9.23277C102.715 8.99013 102.446 8.82671 102.122 8.74287C101.798 8.65885 101.42 8.68674 100.989 8.82671C100.35 8.74287 99.7752 8.80131 99.2636 9.00185C98.7521 9.20275 98.3086 9.49424 97.9331 9.87686C97.5578 10.2598 97.2504 10.7099 97.0111 11.2281C96.7715 11.7461 96.612 12.2782 96.5322 12.8241C96.4984 13.0555 96.482 13.2859 96.477 13.5158C96.3318 13.8117 96.1726 14.0703 95.9972 14.2874C95.7486 14.5954 95.4905 14.8475 95.2229 15.0434C94.9554 15.2395 94.6901 15.3889 94.4275 15.4916C94.1646 15.5944 93.9299 15.6644 93.7236 15.7015C93.4794 15.7482 93.2447 15.753 93.0195 15.7155C92.7944 15.6784 92.5876 15.571 92.4002 15.3935C92.2498 15.2629 92.1348 15.0528 92.0551 14.7635C91.9753 14.4741 91.9285 14.1453 91.9144 13.7764C91.9003 13.4076 91.9144 13.0225 91.9565 12.6212C91.9989 12.22 92.0714 11.8395 92.1748 11.4801C92.2781 11.1208 92.4092 10.7988 92.569 10.5138C92.7283 10.2295 92.9161 10.0262 93.1322 9.90492C93.254 9.92375 93.3294 9.99587 93.3574 10.1218C93.3857 10.2479 93.3926 10.3973 93.3785 10.57C93.3646 10.7428 93.3433 10.9201 93.3153 11.102C93.2871 11.284 93.273 11.4359 93.273 11.5571C93.3199 11.8091 93.4114 12.0052 93.5475 12.1452C93.6834 12.2852 93.8363 12.367 94.0051 12.3901C94.1741 12.4136 94.3406 12.374 94.5051 12.2711C94.669 12.1686 94.8028 12.0052 94.9062 11.781C94.9155 11.7905 94.9296 11.7951 94.9484 11.7951L95.1456 10.017C95.2018 9.77419 95.1642 9.55961 95.0329 9.37292C94.9014 9.18623 94.7278 9.07877 94.512 9.05088C94.2396 8.65885 93.8713 8.4512 93.4067 8.42775C92.9422 8.40448 92.4656 8.55618 91.9776 8.88284C91.6772 9.09777 91.4121 9.39388 91.1822 9.77188C90.952 10.1501 90.7644 10.57 90.6191 11.032C90.4733 11.494 90.3702 11.9819 90.3093 12.4953C90.2482 13.0086 90.2365 13.5081 90.274 13.9932C90.3115 14.4789 90.3985 14.9363 90.5346 15.3654C90.6705 15.7949 90.8605 16.1543 91.1049 16.4435C91.3112 16.6955 91.5457 16.8801 91.8086 16.9968C92.0714 17.1135 92.3459 17.1856 92.6323 17.2137C92.9186 17.2416 93.2026 17.2298 93.4843 17.1787C93.7658 17.1275 94.0333 17.0552 94.2866 16.9616C94.6151 16.8405 94.9532 16.6863 95.3004 16.4996C95.6475 16.3131 95.9808 16.0889 96.3002 15.8275C96.4679 15.69 96.6295 15.54 96.7858 15.3793C96.8569 15.5548 96.9364 15.7246 97.0321 15.8836C97.2856 16.3035 97.628 16.6444 98.0599 16.9057C98.4915 17.167 99.0219 17.2927 99.6509 17.2837C100.327 17.2742 100.951 17.1041 101.523 16.7726C102.096 16.4415 102.565 15.9534 102.932 15.3095C103.48 15.3095 104.019 15.2196 104.549 15.0411C104.545 15.0976 104.541 15.1571 104.536 15.2116C104.499 15.7063 104.48 16.0422 104.48 16.2197C104.471 16.5277 104.45 16.908 104.417 17.3606C104.384 17.8134 104.363 18.2894 104.354 18.7887C104.344 19.288 104.363 19.7922 104.41 20.3011C104.457 20.8096 104.555 21.2718 104.705 21.6873C104.855 22.1024 105.069 22.4548 105.346 22.7444C105.623 23.0335 105.987 23.2064 106.437 23.2623C106.916 23.3275 107.329 23.2435 107.676 23.0103C108.023 22.7769 108.305 22.4573 108.521 22.0512C108.737 21.645 108.889 21.1761 108.978 20.6441C109.068 20.1121 109.093 19.5776 109.056 19.0408C109.018 18.504 108.92 17.9977 108.76 17.5219C108.601 17.0456 108.38 16.6536 108.098 16.3454C108.268 16.2991 108.469 16.2104 108.704 16.0795C108.938 15.949 109.18 15.8019 109.429 15.6385C109.49 15.5983 109.55 15.556 109.611 15.5148C109.588 15.8456 109.577 16.0815 109.577 16.2197C109.568 16.5277 109.546 16.908 109.513 17.3606C109.481 17.8134 109.459 18.2894 109.45 18.7887C109.441 19.288 109.459 19.7922 109.506 20.3011C109.553 20.8096 109.652 21.2718 109.802 21.6873C109.952 22.1024 110.166 22.4548 110.443 22.7444C110.719 23.0335 111.083 23.2064 111.534 23.2623C112.012 23.3275 112.425 23.2435 112.773 23.0103C113.12 22.7769 113.402 22.4573 113.618 22.0512C113.833 21.645 113.986 21.1761 114.075 20.6441C114.164 20.1121 114.19 19.5776 114.153 19.0408C114.115 18.504 114.016 17.9977 113.857 17.5219C113.697 17.0456 113.477 16.6536 113.195 16.3454C113.364 16.2991 113.566 16.2104 113.801 16.0795C114.035 15.949 114.277 15.8019 114.526 15.6385C114.655 15.5535 114.784 15.466 114.912 15.3759C114.96 15.8324 115.064 16.2328 115.23 16.5696C115.431 16.9804 115.706 17.2977 116.053 17.5219C116.4 17.7457 116.809 17.8695 117.278 17.8928C117.748 17.9158 118.259 17.8297 118.813 17.6336C119.226 17.4844 119.585 17.2977 119.89 17.0737C120.195 16.8495 120.469 16.5765 120.713 16.2547C120.728 16.236 120.741 16.2158 120.755 16.1969C120.798 16.3277 120.846 16.4532 120.904 16.5696C121.106 16.9804 121.38 17.2977 121.727 17.5219C122.074 17.7457 122.483 17.8695 122.952 17.8928C123.422 17.9158 123.933 17.8297 124.487 17.6336C124.9 17.4844 125.259 17.2977 125.564 17.0737C125.869 16.8495 126.143 16.5765 126.388 16.2547C126.632 15.9324 126.854 15.5614 127.056 15.1414C127.258 14.7214 127.462 14.2409 127.669 13.6993C127.706 13.5501 127.671 13.417 127.563 13.3003Z" fill="#222222"></path><path d="M15.4653 5.81517L15.4482 5.80508L15.4085 5.79297C15.4244 5.80645 15.4444 5.81426 15.4653 5.81517Z" fill="#0D0C22"></path><path d="M15.7148 7.6012L15.6956 7.60658L15.7148 7.6012Z" fill="#0D0C22"></path><path d="M15.4724 5.81298C15.4699 5.81268 15.4675 5.8121 15.4652 5.81128C15.4651 5.81287 15.4651 5.81446 15.4652 5.81604C15.4678 5.8157 15.4703 5.81464 15.4724 5.81298Z" fill="#0D0C22"></path><path d="M15.4651 5.81587H15.4676V5.81433L15.4651 5.81587Z" fill="#0D0C22"></path><path d="M15.6995 7.59827L15.7284 7.58179L15.7392 7.57573L15.7489 7.56531C15.7306 7.57321 15.7138 7.58438 15.6995 7.59827Z" fill="#0D0C22"></path><path d="M15.5145 5.85472L15.4862 5.82781L15.4671 5.81738C15.4774 5.83556 15.4944 5.84897 15.5145 5.85472Z" fill="#0D0C22"></path><path d="M8.40544 23.1858C8.38287 23.1956 8.36309 23.2108 8.34793 23.2302L8.36576 23.2188C8.37786 23.2077 8.39502 23.1945 8.40544 23.1858Z" fill="#0D0C22"></path><path d="M12.5316 22.3736C12.5316 22.3481 12.5192 22.3528 12.5222 22.4436C12.5222 22.4362 12.5253 22.4288 12.5266 22.4217C12.5283 22.4056 12.5296 22.3898 12.5316 22.3736Z" fill="#0D0C22"></path><path d="M12.1066 23.1858C12.084 23.1956 12.0643 23.2108 12.0491 23.2302L12.0669 23.2188C12.079 23.2077 12.0962 23.1945 12.1066 23.1858Z" fill="#0D0C22"></path><path d="M5.49831 23.3788C5.48118 23.3639 5.4602 23.3541 5.43777 23.3506C5.45594 23.3593 5.4741 23.3681 5.48621 23.3748L5.49831 23.3788Z" fill="#0D0C22"></path><path d="M4.84642 22.7522C4.84374 22.7257 4.83561 22.7001 4.82254 22.6769C4.8318 22.701 4.83955 22.7258 4.84575 22.7509L4.84642 22.7522Z" fill="#0D0C22"></path><path d="M9.23982 11.5487C8.34183 11.9331 7.32276 12.369 6.00201 12.369C5.44949 12.3679 4.89966 12.2921 4.36746 12.1437L5.28092 21.5221C5.31326 21.9141 5.49183 22.2796 5.78118 22.546C6.07053 22.8125 6.4495 22.9603 6.84282 22.9603C6.84282 22.9603 8.13801 23.0275 8.57019 23.0275C9.03533 23.0275 10.4301 22.9603 10.4301 22.9603C10.8233 22.9602 11.2022 22.8123 11.4915 22.5459C11.7808 22.2795 11.9593 21.9141 11.9916 21.5221L12.97 11.1586C12.5328 11.0093 12.0915 10.91 11.5941 10.91C10.7338 10.9097 10.0406 11.206 9.23982 11.5487Z" fill="white"></path><path d="M1.53934 7.54773L1.55481 7.56219L1.5649 7.56825C1.55713 7.56052 1.54856 7.55364 1.53934 7.54773Z" fill="#0D0C22"></path><path d="M17.1925 6.68196L17.0549 5.98812C16.9315 5.36558 16.6513 4.77734 16.0123 4.55234C15.8075 4.48037 15.5751 4.44942 15.418 4.30043C15.261 4.15144 15.2145 3.92005 15.1782 3.70547C15.111 3.31163 15.0477 2.91746 14.9788 2.52429C14.9192 2.18629 14.8722 1.80657 14.7171 1.49648C14.5153 1.08011 14.0966 0.836609 13.6802 0.675509C13.4669 0.595864 13.2491 0.528489 13.0281 0.473713C11.9878 0.199271 10.8941 0.0983732 9.82391 0.0408614C8.53938 -0.0300189 7.25142 -0.00866368 5.96995 0.104763C5.01613 0.191535 4.01152 0.296469 3.10512 0.626405C2.77384 0.747146 2.43247 0.892102 2.18056 1.14805C1.87148 1.46251 1.77058 1.94884 1.99626 2.341C2.15668 2.61947 2.42843 2.81622 2.71667 2.94638C3.0921 3.11409 3.48419 3.2417 3.88641 3.3271C5.00637 3.57464 6.16636 3.67184 7.31054 3.71321C8.5787 3.76439 9.84891 3.72291 11.111 3.5891C11.4231 3.5548 11.7347 3.51365 12.0457 3.46567C12.4119 3.4095 12.647 2.93058 12.5391 2.59694C12.4099 2.19806 12.0628 2.04335 11.6703 2.10355C11.6125 2.11263 11.555 2.12104 11.4971 2.12945L11.4554 2.1355C11.3225 2.15232 11.1895 2.16801 11.0565 2.18259C10.7819 2.21218 10.5065 2.2364 10.2305 2.25523C9.61236 2.29828 8.99251 2.31813 8.373 2.31913C7.76425 2.31913 7.15516 2.30198 6.54776 2.26196C6.27062 2.2438 5.99416 2.2207 5.71837 2.19268C5.59293 2.17956 5.46781 2.16577 5.3427 2.1503L5.22364 2.13516L5.19774 2.13146L5.07431 2.11364C4.82207 2.07563 4.56982 2.03191 4.32027 1.97911C4.29508 1.97352 4.27256 1.95951 4.25642 1.93939C4.24027 1.91927 4.23147 1.89425 4.23147 1.86846C4.23147 1.84266 4.24027 1.81764 4.25642 1.79752C4.27256 1.7774 4.29508 1.76339 4.32027 1.75781H4.32498C4.54123 1.71173 4.75917 1.67238 4.97778 1.63807C5.05065 1.62664 5.12375 1.61543 5.19707 1.60444H5.19909C5.33597 1.59536 5.47353 1.57081 5.60974 1.55466C6.79484 1.43139 7.98699 1.38937 9.17782 1.42888C9.75597 1.4457 10.3338 1.47966 10.9092 1.53818C11.033 1.55097 11.1561 1.56442 11.2792 1.57955C11.3263 1.58527 11.3737 1.592 11.4211 1.59771L11.5166 1.6115C11.7951 1.65298 12.0721 1.70332 12.3477 1.76251C12.756 1.8513 13.2803 1.88023 13.4619 2.32754C13.5198 2.46947 13.546 2.62721 13.578 2.7762L13.6187 2.96623C13.6197 2.96963 13.6205 2.97312 13.621 2.97665C13.7172 3.42509 13.8135 3.87352 13.9099 4.32196C13.917 4.35508 13.9172 4.38931 13.9104 4.42251C13.9037 4.4557 13.8902 4.48715 13.8707 4.51489C13.8513 4.54263 13.8263 4.56606 13.7974 4.58373C13.7685 4.6014 13.7363 4.61293 13.7028 4.61759H13.7001L13.6412 4.62566L13.583 4.63339C13.3987 4.65739 13.2142 4.67981 13.0294 4.70066C12.6655 4.74214 12.3011 4.77801 11.936 4.80828C11.2107 4.8686 10.4839 4.90817 9.75563 4.92701C9.38455 4.93687 9.01359 4.94147 8.64273 4.9408C7.16659 4.93963 5.69174 4.85384 4.22542 4.68384C4.06668 4.66501 3.90793 4.64483 3.74919 4.62431C3.87228 4.64012 3.65972 4.61221 3.61667 4.60615C3.51578 4.59203 3.41488 4.57734 3.31398 4.56209C2.9753 4.51131 2.63864 4.44875 2.30063 4.39393C1.89199 4.32666 1.50118 4.3603 1.13156 4.56209C0.828157 4.72812 0.582593 4.98272 0.42763 5.29192C0.268212 5.62152 0.22079 5.98038 0.149489 6.33453C0.0781879 6.68868 -0.0328001 7.06974 0.00924064 7.43331C0.0997123 8.21796 0.648261 8.85563 1.43728 8.99823C2.17955 9.13276 2.92586 9.24173 3.67419 9.33456C6.61378 9.69458 9.58355 9.73766 12.5323 9.46304C12.7725 9.44062 13.0123 9.41618 13.2517 9.38972C13.3265 9.3815 13.4022 9.39012 13.4733 9.41494C13.5443 9.43976 13.6089 9.48015 13.6623 9.53317C13.7157 9.58618 13.7565 9.65046 13.7819 9.72131C13.8072 9.79216 13.8164 9.86779 13.8087 9.94264L13.734 10.6684C13.5836 12.135 13.4331 13.6015 13.2827 15.0679C13.1257 16.6078 12.9678 18.1476 12.8088 19.6874C12.764 20.121 12.7191 20.5545 12.6743 20.9879C12.6312 21.4147 12.6252 21.855 12.5441 22.2767C12.4163 22.94 11.9673 23.3473 11.3122 23.4962C10.7119 23.6328 10.0988 23.7046 9.48321 23.7101C8.8008 23.7138 8.11873 23.6836 7.43633 23.6873C6.70785 23.6913 5.81557 23.624 5.25324 23.0819C4.75917 22.6057 4.6909 21.86 4.62363 21.2153C4.53395 20.3617 4.44504 19.5082 4.35693 18.6548L3.86253 13.9096L3.54268 10.8393C3.5373 10.7885 3.53192 10.7384 3.52688 10.6873C3.48853 10.321 3.22923 9.96248 2.82059 9.98098C2.47081 9.99645 2.07327 10.2938 2.11431 10.6873L2.35142 12.9635L2.84178 17.6721C2.98147 19.0095 3.12082 20.3472 3.25983 21.6851C3.28674 21.9414 3.31196 22.1984 3.34021 22.4546C3.49391 23.8551 4.56343 24.6098 5.88788 24.8224C6.66143 24.9468 7.45382 24.9724 8.2388 24.9852C9.24509 25.0013 10.2615 25.04 11.2513 24.8577C12.718 24.5886 13.8185 23.6092 13.9755 22.0901C14.0204 21.6515 14.0652 21.2128 14.11 20.774C14.2592 19.3229 14.408 17.8716 14.5567 16.4203L15.043 11.6781L15.266 9.50474C15.2771 9.39698 15.3226 9.29565 15.3958 9.21576C15.469 9.13586 15.5659 9.08165 15.6723 9.06113C16.0917 8.9794 16.4926 8.83982 16.7909 8.52065C17.2658 8.01246 17.3603 7.3499 17.1925 6.68196ZM1.41576 7.15079C1.42215 7.14777 1.41038 7.20259 1.40533 7.22815C1.40432 7.18947 1.40634 7.15517 1.41576 7.15079ZM1.45645 7.4656C1.45982 7.46324 1.4699 7.47669 1.48033 7.49284C1.46452 7.47804 1.45443 7.46694 1.45612 7.4656H1.45645ZM1.49648 7.5184C1.51094 7.54295 1.51867 7.55842 1.49648 7.5184V7.5184ZM1.57686 7.58365H1.57887C1.57887 7.586 1.58257 7.58836 1.58392 7.59071C1.58169 7.58812 1.57921 7.58575 1.57652 7.58365H1.57686ZM15.6528 7.48611C15.5021 7.62939 15.2751 7.69598 15.0507 7.72928C12.535 8.1026 9.98265 8.29161 7.43935 8.2082C5.61916 8.14598 3.81813 7.94385 2.0161 7.68925C1.83953 7.66437 1.64816 7.63208 1.52674 7.50192C1.29804 7.2564 1.41037 6.762 1.4699 6.46536C1.52439 6.19361 1.62865 5.83139 1.95186 5.79271C2.45635 5.73352 3.04223 5.94641 3.54134 6.02208C4.14224 6.11379 4.74538 6.18722 5.35077 6.24238C7.93443 6.47781 10.5615 6.44115 13.1337 6.09675C13.6025 6.03374 14.0697 5.96054 14.5352 5.87713C14.9499 5.8028 15.4096 5.66322 15.6602 6.09271C15.832 6.38532 15.8549 6.7768 15.8283 7.10741C15.8201 7.25146 15.7572 7.38693 15.6524 7.48611H15.6528Z" fill="#222222"></path>
</g></svg>
